<?xml version="1.0" standalone="no"?>
<!DOCTYPE svg PUBLIC "-//W3C//DTD SVG 20010904//EN"
 "http://www.w3.org/TR/2001/REC-SVG-20010904/DTD/svg10.dtd">
<svg version="1.0" xmlns="http://www.w3.org/2000/svg"
 width="1280.000000pt" height="851.000000pt" viewBox="0 0 1280.000000 851.000000"
 preserveAspectRatio="xMidYMid meet">
<metadata>
Created by potrace 1.15, written by Peter Selinger 2001-2017
</metadata>
<g transform="translate(0.000000,851.000000) scale(0.100000,-0.100000)"
fill="#000000" stroke="none">
<path d="M3770 8500 c-52 -4 -176 -13 -275 -20 l-180 -12 -390 -130 c-514
-171 -544 -188 -896 -535 -179 -177 -207 -209 -220 -250 l-15 -48 -104 -6
c-183 -11 -359 -63 -665 -194 -93 -40 -214 -91 -268 -114 -54 -22 -150 -70
-213 -107 -106 -60 -207 -104 -241 -104 -7 0 -73 23 -145 51 -96 37 -134 47
-142 39 -30 -30 4 -157 75 -278 42 -70 168 -198 232 -235 58 -34 78 -31 167
23 l64 39 136 -131 c74 -73 137 -134 139 -135 7 -5 -50 -62 -115 -113 -33 -27
-83 -57 -110 -67 -28 -11 -50 -26 -52 -36 -3 -15 0 -15 42 -3 49 15 80 35 173
111 103 84 103 84 168 40 31 -22 60 -44 66 -51 22 -26 -168 -294 -241 -341
-60 -38 -75 -51 -69 -57 3 -3 29 6 57 20 62 31 126 99 212 225 35 52 69 97 74
101 22 15 62 7 139 -29 91 -43 89 -26 26 -193 -43 -113 -99 -218 -160 -299
-21 -28 -39 -54 -39 -56 0 -31 83 69 138 166 18 31 57 116 87 190 31 73 61
137 68 141 13 8 77 0 116 -14 23 -8 24 -12 18 -72 -7 -72 -44 -226 -81 -336
-14 -41 -23 -76 -21 -79 8 -8 72 142 95 222 11 43 24 110 27 150 5 60 11 76
33 98 29 29 92 45 140 34 l30 -7 1 -151 1 -152 23 140 c13 77 26 154 30 171
10 57 87 70 98 16 27 -133 374 -401 602 -466 33 -10 79 -28 101 -41 55 -32
131 -116 182 -203 41 -68 85 -162 80 -167 -2 -1 -98 -35 -215 -74 -233 -79
-229 -79 -276 -17 -34 44 -62 54 -88 30 -29 -26 -24 -78 15 -148 18 -34 37
-75 41 -93 8 -40 76 -103 110 -103 28 0 32 -12 10 -30 -13 -10 -22 -10 -53 3
-71 31 -92 26 -92 -19 0 -31 11 -47 84 -123 70 -73 86 -95 100 -143 19 -67 45
-89 134 -114 55 -15 63 -21 76 -53 25 -64 73 -118 186 -212 60 -51 110 -96
110 -101 0 -5 -45 -68 -101 -139 -56 -72 -121 -163 -145 -201 -73 -119 -76
-136 -72 -401 3 -210 6 -237 25 -286 30 -73 70 -131 90 -131 9 0 30 -12 45
-27 46 -44 53 -25 40 124 -10 113 -9 129 5 145 25 28 39 22 74 -29 18 -27 37
-50 41 -51 5 -2 22 -15 37 -28 23 -19 34 -44 52 -110 28 -107 44 -132 142
-211 83 -68 103 -76 93 -40 -17 64 -37 220 -32 242 5 21 12 25 44 25 29 0 41
-6 55 -28 9 -15 26 -41 37 -58 l21 -32 -26 -31 c-59 -70 -55 -119 24 -258 57
-102 81 -111 81 -30 0 90 42 195 91 225 15 10 16 0 15 -121 -1 -117 1 -136 20
-172 28 -51 57 -77 77 -69 23 9 27 29 17 84 -7 37 -6 61 6 99 16 55 41 76 79
67 44 -11 177 100 525 439 102 99 216 199 273 239 93 66 123 94 157 145 15 22
15 21 59 -46 25 -38 106 -129 186 -208 78 -78 154 -162 169 -187 40 -68 84
-197 101 -295 17 -98 20 -259 5 -299 -20 -52 -29 -154 -19 -217 19 -118 76
-229 190 -372 l66 -82 -161 -6 c-246 -10 -441 -48 -618 -122 l-83 -35 0 -52
c0 -45 -7 -64 -43 -122 -79 -130 -48 -152 72 -52 46 39 51 41 120 42 39 0 92
4 119 9 l47 8 -61 -97 c-33 -54 -59 -99 -57 -101 2 -3 44 19 92 47 98 57 152
72 208 57 46 -12 53 -23 34 -51 -11 -15 -16 -46 -16 -96 l0 -74 69 64 c76 72
99 83 131 61 20 -14 22 -22 16 -73 -5 -46 -3 -61 9 -74 15 -15 18 -13 42 14
34 40 64 55 149 73 61 12 77 21 118 60 53 52 126 89 204 106 56 12 239 13 357
2 39 -3 84 -2 101 3 18 5 47 6 67 2 33 -6 197 -104 197 -118 0 -12 -57 -19
-97 -13 -21 4 -95 29 -165 56 -104 40 -137 49 -190 49 -34 0 -70 -4 -78 -10
-22 -14 13 -46 88 -82 34 -16 62 -32 62 -36 0 -4 -21 -20 -46 -36 -45 -29 -46
-29 -114 -16 -41 8 -98 11 -142 7 -75 -6 -168 -32 -168 -47 0 -18 67 -58 131
-79 63 -21 109 -51 109 -71 0 -13 -48 -13 -149 1 -79 11 -86 10 -159 -17 -88
-32 -124 -52 -119 -68 7 -20 80 -34 175 -35 110 -1 132 -10 132 -53 0 -22 -11
-41 -40 -70 -37 -38 -42 -39 -82 -33 -72 13 -104 7 -211 -36 -131 -53 -172
-76 -186 -106 l-11 -24 144 2 c80 0 150 -2 157 -6 6 -4 22 -31 35 -60 12 -30
31 -56 41 -59 10 -3 167 -21 348 -41 630 -68 901 -120 1104 -214 147 -67 201
-83 295 -86 45 -1 125 -6 178 -10 108 -9 188 0 443 46 217 40 347 47 467 24
l93 -17 220 36 c121 19 324 52 450 72 271 42 536 94 690 133 211 55 372 151
730 438 300 239 293 235 479 289 157 45 161 45 330 48 250 5 430 36 647 112
132 46 221 86 284 129 28 18 91 46 140 61 113 33 155 55 189 95 22 26 25 37
20 68 -12 70 -22 77 -126 85 -102 7 -144 16 -324 69 -153 45 -259 60 -383 55
-113 -4 -159 -23 -288 -117 -40 -29 -102 -68 -138 -87 -56 -28 -77 -34 -131
-34 -36 0 -81 7 -101 15 -36 15 -36 15 -29 63 28 189 25 336 -9 435 -15 46
-15 50 5 105 13 33 24 91 27 137 5 73 2 90 -31 187 -61 183 -94 369 -136 783
-42 403 -73 571 -162 859 -187 606 -601 1244 -1051 1619 -603 503 -1211 856
-1817 1057 -147 48 -329 96 -530 139 -308 66 -580 166 -895 330 -202 105 -369
204 -825 488 -544 339 -781 471 -1025 572 -53 22 -108 49 -123 59 -47 33 -194
91 -282 111 -166 39 -396 50 -650 31z m3053 -7385 c43 -14 98 -25 122 -25 39
0 47 -4 71 -35 15 -20 24 -38 21 -41 -13 -14 -120 21 -222 70 -119 59 -116 70
8 31z"/>
<path d="M1134 8306 c-4 -9 6 -31 23 -53 116 -149 180 -321 199 -533 7 -81 8
-83 17 -45 11 52 0 179 -23 271 -24 94 -78 209 -134 288 -56 79 -74 94 -82 72z"/>
<path d="M730 8112 c0 -11 20 -32 50 -51 124 -81 224 -245 285 -472 l25 -94
-5 80 c-11 187 -111 388 -242 486 -101 75 -113 81 -113 51z"/>
<path d="M1525 8090 c-4 -6 7 -26 24 -46 68 -77 99 -174 110 -341 7 -113 7
-116 19 -78 17 57 15 125 -8 244 -13 71 -28 118 -46 145 -50 78 -83 102 -99
76z"/>
<path d="M590 7674 c0 -3 37 -45 82 -92 45 -49 91 -109 104 -137 l24 -50 0 35
c0 51 -32 113 -83 162 -43 42 -127 96 -127 82z"/>
<path d="M415 7489 c-10 -15 21 -35 93 -60 34 -11 76 -32 91 -45 34 -29 43
-30 34 -6 -12 34 -36 51 -107 78 -39 15 -75 31 -80 35 -13 12 -23 11 -31 -2z"/>
</g>
</svg>
